<svg width="40" height="40" viewBox="0 0 40 40" fill="none" xmlns="http://www.w3.org/2000/svg">
<path d="M36.6666 27.9V7.78333C36.6666 5.78333 35.0333 4.3 33.05 4.46667H32.95C29.45 4.76667 24.1333 6.55 21.1666 8.41667L20.8833 8.6C20.4 8.9 19.6 8.9 19.1166 8.6L18.7 8.35C15.7333 6.5 10.4333 4.73333 6.93331 4.45C4.94998 4.28333 3.33331 5.78333 3.33331 7.76667V27.9C3.33331 29.5 4.63331 31 6.23331 31.2L6.71665 31.2667C10.3333 31.75 15.9166 33.5833 19.1166 35.3333L19.1833 35.3667C19.6333 35.6167 20.35 35.6167 20.7833 35.3667C23.9833 33.6 29.5833 31.75 33.2166 31.2667L33.7666 31.2C35.3666 31 36.6666 29.5 36.6666 27.9Z" stroke="#292D32" stroke-width="3" stroke-linecap="round" stroke-linejoin="round"/>
<path d="M20 9.15V34.15" stroke="#292D32" stroke-width="3" stroke-linecap="round" stroke-linejoin="round"/>
<path d="M12.9167 14.15H9.16669" stroke="#292D32" stroke-width="3" stroke-linecap="round" stroke-linejoin="round"/>
<path d="M14.1667 19.15H9.16669" stroke="#292D32" stroke-width="3" stroke-linecap="round" stroke-linejoin="round"/>
</svg>
