<svg width="40" height="40" viewBox="0 0 40 40" fill="none" xmlns="http://www.w3.org/2000/svg">
<path d="M20 25C22.7614 25 25 22.7614 25 20C25 17.2386 22.7614 15 20 15C17.2386 15 15 17.2386 15 20C15 22.7614 17.2386 25 20 25Z" stroke="#292D32" stroke-width="3" stroke-miterlimit="10" stroke-linecap="round" stroke-linejoin="round"/>
<path d="M3.33331 21.4667V18.5333C3.33331 16.8 4.74998 15.3667 6.49998 15.3667C9.51665 15.3667 10.75 13.2333 9.23331 10.6167C8.36665 9.11666 8.88331 7.16666 10.4 6.3L13.2833 4.65C14.6 3.86666 16.3 4.33333 17.0833 5.65L17.2666 5.96666C18.7666 8.58333 21.2333 8.58333 22.75 5.96666L22.9333 5.65C23.7166 4.33333 25.4166 3.86666 26.7333 4.65L29.6166 6.3C31.1333 7.16666 31.65 9.11666 30.7833 10.6167C29.2666 13.2333 30.5 15.3667 33.5166 15.3667C35.25 15.3667 36.6833 16.7833 36.6833 18.5333V21.4667C36.6833 23.2 35.2666 24.6333 33.5166 24.6333C30.5 24.6333 29.2666 26.7667 30.7833 29.3833C31.65 30.9 31.1333 32.8333 29.6166 33.7L26.7333 35.35C25.4166 36.1333 23.7166 35.6667 22.9333 34.35L22.75 34.0333C21.25 31.4167 18.7833 31.4167 17.2666 34.0333L17.0833 34.35C16.3 35.6667 14.6 36.1333 13.2833 35.35L10.4 33.7C8.88331 32.8333 8.36665 30.8833 9.23331 29.3833C10.75 26.7667 9.51665 24.6333 6.49998 24.6333C4.74998 24.6333 3.33331 23.2 3.33331 21.4667Z" stroke="#292D32" stroke-width="3" stroke-miterlimit="10" stroke-linecap="round" stroke-linejoin="round"/>
</svg>
