<svg width="32" height="32" viewBox="0 0 32 32" fill="none" xmlns="http://www.w3.org/2000/svg">
<path d="M22.6666 29.3334C21.5555 29.3334 20.6111 28.9445 19.8333 28.1667C19.0555 27.389 18.6666 26.4445 18.6666 25.3334C18.6666 25.2001 18.7 24.889 18.7666 24.4001L9.39996 18.9334C9.0444 19.2667 8.63329 19.5279 8.16663 19.7167C7.69996 19.9056 7.19996 20.0001 6.66663 20.0001C5.55552 20.0001 4.61107 19.6112 3.83329 18.8334C3.05551 18.0556 2.66663 17.1112 2.66663 16.0001C2.66663 14.889 3.05551 13.9445 3.83329 13.1667C4.61107 12.389 5.55552 12.0001 6.66663 12.0001C7.19996 12.0001 7.69996 12.0945 8.16663 12.2834C8.63329 12.4723 9.0444 12.7334 9.39996 13.0667L18.7666 7.60008C18.7222 7.44453 18.6944 7.29453 18.6833 7.15008C18.6722 7.00564 18.6666 6.84453 18.6666 6.66675C18.6666 5.55564 19.0555 4.61119 19.8333 3.83341C20.6111 3.05564 21.5555 2.66675 22.6666 2.66675C23.7777 2.66675 24.7222 3.05564 25.5 3.83341C26.2777 4.61119 26.6666 5.55564 26.6666 6.66675C26.6666 7.77786 26.2777 8.7223 25.5 9.50008C24.7222 10.2779 23.7777 10.6667 22.6666 10.6667C22.1333 10.6667 21.6333 10.5723 21.1666 10.3834C20.7 10.1945 20.2888 9.93341 19.9333 9.60008L10.5666 15.0667C10.6111 15.2223 10.6388 15.3723 10.65 15.5167C10.6611 15.6612 10.6666 15.8223 10.6666 16.0001C10.6666 16.1779 10.6611 16.339 10.65 16.4834C10.6388 16.6279 10.6111 16.7779 10.5666 16.9334L19.9333 22.4001C20.2888 22.0667 20.7 21.8056 21.1666 21.6167C21.6333 21.4279 22.1333 21.3334 22.6666 21.3334C23.7777 21.3334 24.7222 21.7223 25.5 22.5001C26.2777 23.2779 26.6666 24.2223 26.6666 25.3334C26.6666 26.4445 26.2777 27.389 25.5 28.1667C24.7222 28.9445 23.7777 29.3334 22.6666 29.3334Z" fill="#62D0EE"/>
</svg>
