<svg width="40" height="40" viewBox="0 0 40 40" fill="none" xmlns="http://www.w3.org/2000/svg">
<path d="M5 36.6667H35" stroke="currentColor" stroke-width="3" stroke-linecap="round" stroke-linejoin="round"/>
<path d="M9.33329 13.9667H6.66667C5.75 13.9667 5 14.7167 5 15.6333V30C5 30.9167 5.75 31.6667 6.66667 31.6667H9.33329C10.25 31.6667 11 30.9167 11 30V15.6333C11 14.7167 10.25 13.9667 9.33329 13.9667Z" stroke="currentColor" stroke-width="3" stroke-linecap="round" stroke-linejoin="round"/>
<path d="M21.3333 8.64999H18.6667C17.75 8.64999 17 9.39999 17 10.3167V30C17 30.9167 17.75 31.6667 18.6667 31.6667H21.3333C22.25 31.6667 23 30.9167 23 30V10.3167C23 9.39999 22.25 8.64999 21.3333 8.64999Z" stroke="currentColor" stroke-width="3" stroke-linecap="round" stroke-linejoin="round"/>
<path d="M33.3334 3.33333H30.6667C29.7501 3.33333 29.0001 4.08333 29.0001 4.99999V30C29.0001 30.9167 29.7501 31.6667 30.6667 31.6667H33.3334C34.25 31.6667 35 30.9167 35 30V4.99999C35 4.08333 34.25 3.33333 33.3334 3.33333Z" stroke="currentColor" stroke-width="3" stroke-linecap="round" stroke-linejoin="round"/>
</svg>
