<svg width="40" height="40" viewBox="0 0 40 40" fill="none" xmlns="http://www.w3.org/2000/svg">
<path d="M28.3333 30.7168H21.6666L14.25 35.65C13.15 36.3834 11.6666 35.6001 11.6666 34.2668V30.7168C6.66665 30.7168 3.33331 27.3834 3.33331 22.3834V12.3833C3.33331 7.38332 6.66665 4.04999 11.6666 4.04999H28.3333C33.3333 4.04999 36.6666 7.38332 36.6666 12.3833V22.3834C36.6666 27.3834 33.3333 30.7168 28.3333 30.7168Z" stroke="currentColor" stroke-width="3" stroke-miterlimit="10" stroke-linecap="round" stroke-linejoin="round"/>
<path d="M20 18.9333V18.5834C20 17.45 20.7001 16.85 21.4001 16.3667C22.0834 15.9 22.7666 15.3 22.7666 14.2C22.7666 12.6667 21.5334 11.4333 20 11.4333C18.4667 11.4333 17.2334 12.6667 17.2334 14.2" stroke="currentColor" stroke-width="3" stroke-linecap="round" stroke-linejoin="round"/>
<path d="M19.9925 22.9166H20.0075" stroke="currentColor" stroke-width="3" stroke-linecap="round" stroke-linejoin="round"/>
</svg>
