<svg width="40" height="40" viewBox="0 0 40 40" fill="none" xmlns="http://www.w3.org/2000/svg">
<path d="M15.2666 18.1167C15.1 18.1 14.9 18.1 14.7166 18.1167C10.75 17.9833 7.59998 14.7333 7.59998 10.7333C7.59998 6.65 10.9 3.33334 15 3.33334C19.0833 3.33334 22.4 6.65 22.4 10.7333C22.3833 14.7333 19.2333 17.9833 15.2666 18.1167Z" stroke="currentColor" stroke-width="3" stroke-linecap="round" stroke-linejoin="round"/>
<path d="M27.35 6.66666C30.5834 6.66666 33.1834 9.28333 33.1834 12.5C33.1834 15.65 30.6834 18.2167 27.5667 18.3333C27.4334 18.3167 27.2834 18.3167 27.1334 18.3333" stroke="currentColor" stroke-width="3" stroke-linecap="round" stroke-linejoin="round"/>
<path d="M6.93333 24.2667C2.89999 26.9667 2.89999 31.3667 6.93333 34.05C11.5167 37.1167 19.0333 37.1167 23.6167 34.05C27.65 31.35 27.65 26.95 23.6167 24.2667C19.05 21.2167 11.5333 21.2167 6.93333 24.2667Z" stroke="currentColor" stroke-width="3" stroke-linecap="round" stroke-linejoin="round"/>
<path d="M30.5667 33.3333C31.7667 33.0833 32.9 32.6 33.8333 31.8833C36.4333 29.9333 36.4333 26.7167 33.8333 24.7667C32.9166 24.0667 31.8 23.6 30.6167 23.3333" stroke="currentColor" stroke-width="3" stroke-linecap="round" stroke-linejoin="round"/>
</svg>
